<?xml version="1.0" encoding="UTF-8"?>
<!-- Created with Inkscape (http://www.inkscape.org/) -->
<svg width="800" height="800" version="1.1" viewBox="0 0 800 800" xmlns="http://www.w3.org/2000/svg">
 <defs>
  <linearGradient id="linearGradient3" x1="886.75" x2="926.2" y1="40.983" y2="86.554" gradientTransform="matrix(13.436 0 0 13.436 -11825 -515.91)" gradientUnits="userSpaceOnUse">
   <stop stop-color="#5d2fb1" offset="0"/>
   <stop stop-color="#0065b3" offset=".48614"/>
   <stop stop-color="#00b5b6" offset="1"/>
  </linearGradient>
  <linearGradient id="linearGradient6" x1="909.96" x2="943.29" y1="41.956" y2="63.041" gradientTransform="matrix(10.077 0 0 10.077 -9045.7 -337.33)" gradientUnits="userSpaceOnUse">
   <stop stop-color="#5d2fb1" offset="0"/>
   <stop stop-color="#0065b3" offset=".48614"/>
   <stop stop-color="#00b5b6" offset="1"/>
  </linearGradient>
 </defs>
 <circle cx="400" cy="400" r="397.51" fill="#080411" stroke-linecap="round" stroke-linejoin="round" stroke-opacity=".34" stroke-width="1.5" style="paint-order:markers fill stroke"/>
 <g transform="matrix(.82562 0 0 .82562 61.52 104.39)">
  <path d="m88.087 53.02c-2.916 0.364-4.916 3.1187-4.3533 6.0093l-0.71333-0.656 4.0667 77.516c-0.0053 0.14-0.0053 0.28134 0 0.42134 0 0 34.724 257.03 45.188 313.54 10.636 57.421 66.557 200.21 265.15 296.95 0.24 0.016 0.47467 0.016 0.71334 0-0.25467-0.14534-0.87467-0.5-0.85867-0.5l-0.33867-0.28534-0.24-0.20933-0.83333-1.1293c1.3187 2.0147 3.876 2.828 6.1147 1.9427 1.276-0.636 2.2293-1.776 2.6253-3.152l-1.0213 1.996-0.99467 0.94667s-0.244 0.12-0.47333 0.23467c0.14533 0.0573 0.296 0.10933 0.448 0.156 198.59-96.744 254.51-239.53 265.15-296.95 10.469-56.511 45.193-313.54 45.193-313.54 5e-3 -0.14 5e-3 -0.28134 0-0.42134l4.0667-77.516c0.25067-5.2387-6.64-7.38-9.3947-2.9107-18.079 29.457-46.568 47.26-95.287 60.853-48.599 13.557-117.01 22.516-212.67 33.907-95.661-11.391-163.91-20.349-212.32-33.907-48.537-13.588-76.833-31.38-94.917-60.853l-0.604 1.0987c-0.51067-1.7707-1.9373-3.1253-3.7293-3.5413zm618.11 17.869-3.3587 64.109c-0.016 0.0827-34.896 258.01-45.084 313.02-9.984 53.916-63.703 193.25-257.72 288.58-53.619-26.339-96.484-56.031-130.71-86.359 121.49-62.652 123.54-111.58 223.92-144.83 0.62-0.328 1.1453-0.57866 1.76-0.76133 2.088-0.56667 4.052-0.76 6.14-1.416 44.62-13.593 29.803-10.86 67.313-21.516 37.473-10.615 55.344 27.027 55.344 27.027s-0.724-51.177-9.396-65.865c-8.808-14.735-17.188-16.011-30.781-17.817-13.401-1.6973-57.131 0-57.131 0 0.188 0.036 0.39066 0.156 0.47466 0.208-1.896-0.28133-3.8027-0.792-5.9333-0.97333l1.9427-13.147s-158.22 14.1-192.7-1.208c0 0 10.136 20.803 30.417 26.584 0 0-35.745-2.8907-43.277-41.068 0 0-6.6293 31.823 8.344 49.203 0 0-29.14-4.9733-13.593-54.005 0 0-19.672 32.089-30.281 60.985-26.765 3.6867-55.093 7.5933-84.421 11.995 87.323-83.527 186.86-173.08-5.9533-306.67 87.036 91.921 30.677 143.37-62.932 202.43-13.849-95.131-31.376-224.33-31.385-224.4v-0.052l-3.36-64.005c19.844 25.14 47.401 42.989 90.771 55.136 49.797 13.943 118.37 22.859 214.45 34.296 0.40133 0.0467 0.80667 0.0467 1.208 0 96.073-11.432 164.82-20.333 214.79-34.271 43.552-12.151 71.255-30.041 91.14-55.213zm-245.29 359.28c4.0253 8.5253 22.604 11.287 36.343 6.1667 12.131-4.3547 20.891 3.344 31.177 5.2493h-0.18666c-4.1253 0.94267-17.579 5.8813-24.063 11.229-5.5107 4.3187-12.469 7.532-19.188 7.532-7.0213 0-13.937-3.4427-18.812-12.672-2.2813-4.4173-4.1827-10.156-5.276-17.505zm-59.021 316.61c0 0.0253 0 0.0307-0.13066 0.052 0.0427-0.016 0.0893-0.0307 0.13066-0.052z" fill="url(#linearGradient3)"/>
  <g fill="url(#linearGradient6)">
   <path transform="scale(1.3333)" d="m215.87 126.32 72.336 10.59-72.336-14.281-72.242-10.59z"/>
   <path transform="scale(1.3333)" d="m215.87 271.61 72.336 11.086-72.336-14.75-72.242-11.008z"/>
   <path transform="scale(1.3333)" d="m296.06 207.48-152.46-22.985 152.46 30.274 3.875 19.855 3.91-19.785 152.42-30.344-152.42 22.985-3.91-68.536z"/>
   <path transform="scale(1.3333)" d="m452.46 208.15 3.805 74.547 3.871-74.547-3.871-74.332z"/>
  </g>
 </g>
</svg>
